<?xml version="1.0" encoding="UTF-8"?>
<svg fill="none" viewBox="0 0 128 128" xmlns="http://www.w3.org/2000/svg">
<g clip-path="url(#c)">
<mask id="b" x="6" y="6" width="116" height="116" fill="black" maskUnits="userSpaceOnUse">
<rect x="6" y="6" width="116" height="116" fill="#fff"/>
<path d="m120 64c0 30.928-25.072 56-56 56s-56-25.072-56-56 25.072-56 56-56 56 25.072 56 56zm-110.32 0c0 30 24.32 54.32 54.32 54.32s54.32-24.32 54.32-54.32-24.32-54.32-54.32-54.32-54.32 24.32-54.32 54.32z"/>
</mask>
<path d="m120 64c0 30.928-25.072 56-56 56s-56-25.072-56-56 25.072-56 56-56 56 25.072 56 56zm-110.32 0c0 30 24.32 54.32 54.32 54.32s54.32-24.32 54.32-54.32-24.32-54.32-54.32-54.32-54.32 24.32-54.32 54.32z" fill="#FFE4E6"/>
<path d="m120 64c0 30.928-25.072 56-56 56s-56-25.072-56-56 25.072-56 56-56 56 25.072 56 56zm-110.32 0c0 30 24.32 54.32 54.32 54.32s54.32-24.32 54.32-54.32-24.32-54.32-54.32-54.32-54.32 24.32-54.32 54.32z" mask="url(#b)" stroke="#000" stroke-width="4"/>
<rect x="62" y="3" width="4" height="122" fill="#FFE4E6" stroke="#000" stroke-width="2"/>
<rect x="3" y="62" width="122" height="4" fill="#FFE4E6" stroke="#000" stroke-width="2"/>
<circle cx="44" cy="44" r="16" fill="#ff0" stroke="#000" stroke-width="2"/>
<circle cx="44" cy="84" r="16" fill="#00E800" stroke="#000" stroke-width="2"/>
<circle cx="84.5" cy="43.5" r="15.5" fill="#0AC4BB" stroke="#000" stroke-width="2"/>
<circle cx="84" cy="84" r="16" fill="#E80000" stroke="#000" stroke-width="2"/>
<circle cx="111" cy="111" r="12" fill="#ff0" stroke="#000" stroke-width="2"/>
<circle cx="111" cy="17" r="12" fill="#00E800" stroke="#000" stroke-width="2"/>
<circle cx="17" cy="111" r="12" fill="#0AC4BB" stroke="#000" stroke-width="2"/>
<circle cx="17" cy="17" r="12" fill="#E80000" stroke="#000" stroke-width="2"/>
<mask id="a" x="-7.62939e-06" y="-3.8147e-06" width="128" height="128" fill="black" maskUnits="userSpaceOnUse">
<rect x="-7.6294e-6" y="-3.8147e-6" width="128" height="128" fill="#fff"/>
<path d="m125.95 4.48c-0.292 7.2955-1.87 14.489-4.669 21.246-3.116 7.5222-7.683 14.357-13.44 20.114-5.758 5.7573-12.592 10.324-20.115 13.44-6.7576 2.7991-13.951 4.3778-21.246 4.6699v0.0496 0.0496c7.2955 0.2921 14.489 1.8708 21.246 4.6699 7.5221 3.1158 14.357 7.6826 20.115 13.44 5.757 5.7572 10.324 12.592 13.44 20.115 2.799 6.757 4.377 13.951 4.669 21.246h0.05v2.449 0.031h-0.031-2.449v-0.05c-7.296-0.292-14.489-1.87-21.246-4.669-7.5226-3.116-14.357-7.683-20.115-13.44-5.7573-5.758-10.324-12.592-13.44-20.115-2.7991-6.7576-4.3779-13.951-4.6699-21.246h-0.0496-0.0496c-0.2921 7.2955-1.8708 14.489-4.6699 21.246-3.1158 7.5221-7.6827 14.357-13.44 20.115-5.7572 5.757-12.592 10.324-20.114 13.44-6.7576 2.799-13.951 4.377-21.246 4.669-1e-5 0.017-2e-5 0.033-2e-5 0.05h-2.48v-2.48h0.04962c0.29205-7.295 1.8708-14.489 4.6698-21.246 3.1158-7.5226 7.6826-14.357 13.44-20.115 5.7572-5.7573 12.592-10.324 20.114-13.44 6.7575-2.7991 13.951-4.3778 21.246-4.6699v-0.0496-0.0496c-7.2955-0.2921-14.489-1.8708-21.246-4.6699-7.5222-3.1158-14.357-7.6827-20.114-13.44-5.7573-5.7572-10.324-12.592-13.44-20.114-2.7991-6.7576-4.3778-13.951-4.6698-21.246-0.01654-2e-5 -0.03308-2e-5 -0.04963-2e-5v-2.48h2e-5 2.48c0 0.01654 0 0.03308 2e-5 0.04962 7.2955 0.29204 14.489 1.8708 21.246 4.6698 7.5221 3.1158 14.357 7.6826 20.114 13.44 5.7572 5.7572 10.324 12.592 13.44 20.114 2.7991 6.7576 4.3778 13.951 4.6699 21.246h0.0496 0.0496c0.292-7.2955 1.8708-14.489 4.6699-21.246 3.1157-7.5222 7.6826-14.357 13.44-20.114 5.7572-5.7572 12.592-10.324 20.115-13.44 6.757-2.7991 13.951-4.3778 21.246-4.6698v-0.04963h2.48v0.0435 2.4365c-0.017 0-0.033 1e-5 -0.05 3e-5zm-2.484 0.05394c-0.296 6.9511-1.809 13.803-4.477 20.243-2.991 7.2213-7.375 13.783-12.902 19.31s-12.088 9.9111-19.31 12.902c-6.4399 2.6675-13.292 4.1805-20.243 4.4767 0.2962-6.9511 1.8093-13.803 4.4768-20.243 2.9911-7.2213 7.3753-13.783 12.902-19.31 5.5269-5.5269 12.088-9.9111 19.31-12.902 6.44-2.6675 13.292-4.1805 20.243-4.4767zm-62 56.932c-0.2962-6.9511-1.8092-13.803-4.4767-20.243-2.9912-7.2213-7.3754-13.783-12.902-19.31-5.527-5.5269-12.088-9.9112-19.31-12.902-6.4399-2.6675-13.292-4.1805-20.243-4.4767 0.29619 6.9511 1.8092 13.803 4.4767 20.243 2.9912 7.2213 7.3754 13.783 12.902 19.31 5.5269 5.5269 12.088 9.9111 19.31 12.902 6.4399 2.6675 13.292 4.1805 20.243 4.4767zm0 5.068c-6.9511 0.2962-13.803 1.8092-20.243 4.4767-7.2213 2.9912-13.783 7.3754-19.31 12.902-5.5269 5.527-9.9112 12.088-12.902 19.31-2.6675 6.44-4.1805 13.292-4.4767 20.243 6.9512-0.296 13.803-1.809 20.243-4.477 7.2213-2.991 13.783-7.375 19.31-12.902 5.5269-5.527 9.9111-12.088 12.902-19.31 2.6675-6.4399 4.1805-13.292 4.4767-20.243zm5.0679 0c0.2962 6.9511 1.8093 13.803 4.4768 20.243 2.9911 7.2213 7.3753 13.783 12.902 19.31 5.5269 5.527 12.088 9.911 19.31 12.902 6.44 2.668 13.292 4.181 20.243 4.477-0.296-6.951-1.809-13.803-4.477-20.243-2.991-7.2216-7.375-13.783-12.902-19.31s-12.088-9.9111-19.31-12.902c-6.4399-2.6675-13.292-4.1805-20.243-4.4767z" clip-rule="evenodd" fill-rule="evenodd"/>
</mask>
<path d="m125.95 4.48c-0.292 7.2955-1.87 14.489-4.669 21.246-3.116 7.5222-7.683 14.357-13.44 20.114-5.758 5.7573-12.592 10.324-20.115 13.44-6.7576 2.7991-13.951 4.3778-21.246 4.6699v0.0496 0.0496c7.2955 0.2921 14.489 1.8708 21.246 4.6699 7.5221 3.1158 14.357 7.6826 20.115 13.44 5.757 5.7572 10.324 12.592 13.44 20.115 2.799 6.757 4.377 13.951 4.669 21.246h0.05v2.449 0.031h-0.031-2.449v-0.05c-7.296-0.292-14.489-1.87-21.246-4.669-7.5226-3.116-14.357-7.683-20.115-13.44-5.7573-5.758-10.324-12.592-13.44-20.115-2.7991-6.7576-4.3779-13.951-4.6699-21.246h-0.0496-0.0496c-0.2921 7.2955-1.8708 14.489-4.6699 21.246-3.1158 7.5221-7.6827 14.357-13.44 20.115-5.7572 5.757-12.592 10.324-20.114 13.44-6.7576 2.799-13.951 4.377-21.246 4.669-1e-5 0.017-2e-5 0.033-2e-5 0.05h-2.48v-2.48h0.04962c0.29205-7.295 1.8708-14.489 4.6698-21.246 3.1158-7.5226 7.6826-14.357 13.44-20.115 5.7572-5.7573 12.592-10.324 20.114-13.44 6.7575-2.7991 13.951-4.3778 21.246-4.6699v-0.0496-0.0496c-7.2955-0.2921-14.489-1.8708-21.246-4.6699-7.5222-3.1158-14.357-7.6827-20.114-13.44-5.7573-5.7572-10.324-12.592-13.44-20.114-2.7991-6.7576-4.3778-13.951-4.6698-21.246-0.01654-2e-5 -0.03308-2e-5 -0.04963-2e-5v-2.48h2e-5 2.48c0 0.01654 0 0.03308 2e-5 0.04962 7.2955 0.29204 14.489 1.8708 21.246 4.6698 7.5221 3.1158 14.357 7.6826 20.114 13.44 5.7572 5.7572 10.324 12.592 13.44 20.114 2.7991 6.7576 4.3778 13.951 4.6699 21.246h0.0496 0.0496c0.292-7.2955 1.8708-14.489 4.6699-21.246 3.1157-7.5222 7.6826-14.357 13.44-20.114 5.7572-5.7572 12.592-10.324 20.115-13.44 6.757-2.7991 13.951-4.3778 21.246-4.6698v-0.04963h2.48v0.0435 2.4365c-0.017 0-0.033 1e-5 -0.05 3e-5zm-2.484 0.05394c-0.296 6.9511-1.809 13.803-4.477 20.243-2.991 7.2213-7.375 13.783-12.902 19.31s-12.088 9.9111-19.31 12.902c-6.4399 2.6675-13.292 4.1805-20.243 4.4767 0.2962-6.9511 1.8093-13.803 4.4768-20.243 2.9911-7.2213 7.3753-13.783 12.902-19.31 5.5269-5.5269 12.088-9.9111 19.31-12.902 6.44-2.6675 13.292-4.1805 20.243-4.4767zm-62 56.932c-0.2962-6.9511-1.8092-13.803-4.4767-20.243-2.9912-7.2213-7.3754-13.783-12.902-19.31-5.527-5.5269-12.088-9.9112-19.31-12.902-6.4399-2.6675-13.292-4.1805-20.243-4.4767 0.29619 6.9511 1.8092 13.803 4.4767 20.243 2.9912 7.2213 7.3754 13.783 12.902 19.31 5.5269 5.5269 12.088 9.9111 19.31 12.902 6.4399 2.6675 13.292 4.1805 20.243 4.4767zm0 5.068c-6.9511 0.2962-13.803 1.8092-20.243 4.4767-7.2213 2.9912-13.783 7.3754-19.31 12.902-5.5269 5.527-9.9112 12.088-12.902 19.31-2.6675 6.44-4.1805 13.292-4.4767 20.243 6.9512-0.296 13.803-1.809 20.243-4.477 7.2213-2.991 13.783-7.375 19.31-12.902 5.5269-5.527 9.9111-12.088 12.902-19.31 2.6675-6.4399 4.1805-13.292 4.4767-20.243zm5.0679 0c0.2962 6.9511 1.8093 13.803 4.4768 20.243 2.9911 7.2213 7.3753 13.783 12.902 19.31 5.5269 5.527 12.088 9.911 19.31 12.902 6.44 2.668 13.292 4.181 20.243 4.477-0.296-6.951-1.809-13.803-4.477-20.243-2.991-7.2216-7.375-13.783-12.902-19.31s-12.088-9.9111-19.31-12.902c-6.4399-2.6675-13.292-4.1805-20.243-4.4767z" clip-rule="evenodd" fill="#FFE4E6" fill-rule="evenodd"/>
<path d="m121.28 25.726 1.847 0.7653-1.847-0.7653zm4.669-21.246-1e-3 -2-1.92 0.0016-0.077 1.9184 1.998 0.08zm-38.224 54.8 0.7653 1.8478-0.7653-1.8478zm-21.246 4.6699-0.08-1.9984-1.9182 0.0768-0.0018 1.9197 2 0.0019zm0 0.0992-2 0.0019 0.0018 1.9197 1.9182 0.0768 0.08-1.9984zm21.246 4.6699-0.7654 1.8477 0.7654-1.8477zm33.555 33.554-1.848 0.765 1.848-0.765zm4.669 21.246-1.998 0.08 0.077 1.918 1.92 2e-3 1e-3 -2zm0.05 0h2v-2h-2v2zm0 2.48v2h2v-2h-2zm-2.48 0h-2v2h2v-2zm0-0.05 2-1e-3 -2e-3 -1.92-1.918-0.077-0.08 1.998zm-21.246-4.669 0.765-1.848-0.765 1.848zm-33.554-33.555 1.8477-0.7654-1.8477 0.7654zm-4.6699-21.246 1.9984-0.08-0.0768-1.9182-1.9198-0.0018-0.0018 2zm-0.0992 0-0.0019-2-1.9197 0.0018-0.0768 1.9182 1.9984 0.08zm-4.6699 21.246 1.8478 0.7653-1.8478-0.7653zm-33.554 33.555 0.7653 1.847-0.7653-1.847zm-21.246 4.669-0.08-1.998-1.9184 0.077-0.00161 1.92 2 1e-3zm-2e-5 0.05v2h2v-2h-2zm-2.48 0h-2v2h2v-2zm0-2.48v-2h-2v2h2zm0.04962 0 0.00185 2 1.9198-2e-3 0.07679-1.918-1.9984-0.08zm4.6698-21.246 1.8478 0.765-1.8478-0.765zm13.44-20.115 1.4142 1.4142-1.4142-1.4142zm20.114-13.44 0.7654 1.8477-0.7654-1.8477zm21.246-4.6699 0.08 1.9984 1.9182-0.0768 0.0018-1.9197-2-0.0019zm0-0.0992 2-0.0019-0.0018-1.9197-1.9182-0.0768-0.08 1.9984zm-21.246-4.6699 0.7654-1.8477-0.7654 1.8477zm-20.114-13.44 1.4142-1.4142-1.4142 1.4142zm-13.44-20.114-1.8478 0.7653 1.8478-0.7653zm-4.6698-21.246 1.9984-0.08-0.07679-1.9184-1.9199-0.0016-0.00168 2zm-0.04963-2e-5h-2v2h2v-2zm0-2.48v-2h-2v2h2zm2.48 0h2v-2h-2v2zm2e-5 0.04962-2 0.00167 0.0016 1.9199 1.9184 0.07679 0.08-1.9984zm21.246 4.6698-0.7654 1.8478 0.7654-1.8478zm20.114 13.44 1.4142-1.4142-1.4142 1.4142zm13.44 20.114-1.8477 0.7654 1.8477-0.7654zm4.6699 21.246-1.9984 0.08 0.0768 1.9182 1.9197 0.0018 0.0019-2zm0.0992 0 0.0018 2 1.9198-0.0018 0.0768-1.9182-1.9984-0.08zm4.6699-21.246-1.8478-0.7653 1.8478 0.7653zm13.44-20.114-1.4143-1.4142 1.4143 1.4142zm20.115-13.44-0.766-1.8478 0.766 1.8478zm21.246-4.6698 0.08 1.9984 1.918-0.07679 2e-3 -1.9198-2-0.00185zm0-0.04963v-2h-2v2h2zm2.48 0h2v-2h-2v2zm0 2.48v2h2v-2h-2zm-2.534 0.05397 1.998 0.08514 0.093-2.176-2.176 0.09272 0.085 1.9982zm-4.477 20.243 1.848 0.7654-1.848-0.7654zm-12.902 19.31 1.414 1.4142-1.414-1.4142zm-19.31 12.902-0.7653-1.8478 0.7653 1.8478zm-20.243 4.4767-1.9981-0.0851-0.0928 2.176 2.1761-0.0927-0.0852-1.9982zm4.4768-20.243-1.8478-0.7654 1.8478 0.7654zm12.902-19.31-1.4142-1.4142 1.4142 1.4142zm19.31-12.902 0.765 1.8478-0.765-1.8478zm-46.234 32.212 1.8478-0.7654-1.8478 0.7654zm4.4767 20.243-0.0851 1.9982 2.176 0.0927-0.0927-2.176-1.9982 0.0851zm-17.379-39.553-1.4142 1.4142 1.4142-1.4142zm-19.31-12.902-0.7654 1.8477 0.7654-1.8477zm-20.243-4.4767 0.08514-1.9982-2.176-0.09272 0.09272 2.176 1.9982-0.08514zm4.4767 20.243-1.8478 0.7654 1.8478-0.7654zm12.902 19.31-1.4142 1.4142 1.4142-1.4142zm19.31 12.902 0.7653-1.8478-0.7653 1.8478zm0 14.021 0.7653 1.8478-0.7653-1.8478zm20.243-4.4767 1.9982 0.0851 0.0927-2.176-2.176 0.0927 0.0851 1.9982zm-39.553 17.379-1.4142-1.4142 1.4142 1.4142zm-12.902 19.31-1.8478-0.766 1.8478 0.766zm-4.4767 20.243-1.9982-0.085-0.09273 2.176 2.1761-0.093-0.08515-1.998zm20.243-4.477 0.7654 1.848-0.7654-1.848zm19.31-12.902 1.4142 1.414-1.4142-1.414zm12.902-19.31-1.8478-0.7654 1.8478 0.7654zm14.021 0 1.8477-0.7653-1.8477 0.7653zm-4.4768-20.243 0.0852-1.9982-2.1761-0.0927 0.0928 2.176 1.9981-0.0851zm17.379 39.553-1.4142 1.414 1.4142-1.414zm19.31 12.902 0.765-1.847-0.765 1.847zm20.243 4.477-0.085 1.998 2.176 0.093-0.093-2.176-1.998 0.085zm-4.477-20.243-1.847 0.765 1.847-0.765zm-12.902-19.31-1.414 1.4142 1.414-1.4142zm-19.31-12.902-0.7654 1.8478 0.7654-1.8478zm36.351-44.519c2.89-6.9755 4.519-14.401 4.821-21.932l-3.997-0.15999c-0.283 7.0602-1.81 14.021-4.519 20.561l3.695 1.5307zm-13.873 20.763c5.943-5.9429 10.657-12.998 13.873-20.763l-3.695-1.5307c-3.016 7.2795-7.435 13.894-13.007 19.465l2.829 2.8284zm-20.763 13.874c7.7649-3.2163 14.82-7.9305 20.763-13.874l-2.829-2.8284c-5.571 5.5715-12.186 9.9911-19.465 13.006l1.5307 3.6955zm-21.932 4.8205c7.5308-0.3015 14.956-1.9312 21.932-4.8205l-1.5307-3.6955c-6.5395 2.7087-13.501 4.2366-20.561 4.5192l0.16 3.9968zm1.92-1.9488v-0.0478l-4-0.0037v0.0515h4zm0 0.0478v-0.0478h-4v0.0515l4-0.0037zm20.012 2.8239c-6.9755-2.8893-14.401-4.519-21.932-4.8205l-0.16 3.9968c7.0601 0.2826 14.021 1.8105 20.561 4.5192l1.5307-3.6955zm20.763 13.874c-5.943-5.943-12.998-10.657-20.763-13.874l-1.5307 3.6955c7.2795 3.0153 13.894 7.4349 19.465 13.006l2.829-2.8284zm13.873 20.763c-3.216-7.7646-7.93-14.82-13.873-20.763l-2.829 2.8284c5.572 5.5715 9.991 12.186 13.007 19.465l3.695-1.531zm4.821 21.932c-0.302-7.531-1.931-14.956-4.821-21.932l-3.695 1.531c2.709 6.54 4.236 13.501 4.519 20.561l3.997-0.16zm-1.949-1.92h-0.048l-3e-3 4h0.051v-4zm2 4.449v-2.449h-4v2.449h4zm0 0.031v-0.016-0.015h-4v0.016 0.015h4zm-2.031 2h1e-3 1e-3 1e-3 1e-3 1e-3 1e-3 1e-3 1e-3 1e-3 1e-3 1e-3 1e-3 1e-3 1e-3 1e-3 1e-3 1e-3 1e-3 1e-3 1e-3 1e-3 1e-3 1e-3 1e-3 1e-3 1e-3 1e-3 1e-3 1e-3 1e-3 1e-3v-4h-1e-3 -1e-3 -1e-3 -1e-3 -1e-3 -1e-3 -1e-3 -1e-3 -1e-3 -1e-3 -1e-3 -1e-3 -1e-3 -1e-3 -1e-3 -1e-3 -1e-3 -1e-3 -1e-3 -1e-3 -1e-3 -1e-3 -1e-3 -1e-3 -1e-3 -1e-3 -1e-3 -1e-3 -1e-3 -1e-3 -1e-3v4zm-2.449 0h2.449v-4h-2.449v4zm-2-2.048v0.048h4v-0.051l-4 3e-3zm-20.012-2.824c6.976 2.89 14.401 4.519 21.932 4.821l0.16-3.997c-7.06-0.283-14.021-1.81-20.561-4.519l-1.531 3.695zm-20.763-13.873c5.943 5.943 12.998 10.657 20.763 13.873l1.531-3.695c-7.2796-3.016-13.894-7.435-19.465-13.007l-2.8285 2.829zm-13.873-20.763c3.2163 7.7649 7.9305 14.82 13.873 20.763l2.8285-2.829c-5.5715-5.571-9.9911-12.186-13.006-19.465l-3.6955 1.5307zm-4.8205-21.932c0.3015 7.5308 1.9311 14.956 4.8205 21.932l3.6955-1.5307c-2.7088-6.5395-4.2366-13.501-4.5192-20.561l-3.9968 0.16zm1.9488 1.92h0.0478l0.0036-4h-0.0514v4zm-0.0478 0h0.0478v-4h-0.0515l0.0037 4zm-2.8239 20.012c2.8893-6.9755 4.519-14.401 4.8205-21.932l-3.9968-0.16c-0.2827 7.0601-1.8105 14.022-4.5192 20.561l3.6955 1.5307zm-13.874 20.763c5.943-5.943 10.657-12.998 13.874-20.763l-3.6955-1.5307c-3.0153 7.2795-7.4349 13.894-13.006 19.465l2.8284 2.829zm-20.763 13.873c7.7649-3.216 14.82-7.93 20.763-13.873l-2.8284-2.829c-5.5715 5.572-12.186 9.991-19.465 13.007l1.5307 3.695zm-21.932 4.821c7.5308-0.302 14.956-1.931 21.932-4.821l-1.5307-3.695c-6.5395 2.709-13.501 4.236-20.561 4.519l0.16 3.997zm1.92-1.949c0-0.016 1e-5 -0.032 2e-5 -0.048l-4-3e-3c-1e-5 0.017-2e-5 0.034-2e-5 0.051h4zm-4.48 2h2.48v-4h-2.48v4zm-2-4.48v2.48h4v-2.48h-4zm2.0478-2h-0.04778v4h0.05147l-0.00369-4zm2.8239-20.012c-2.8894 6.976-4.519 14.401-4.8205 21.932l3.9968 0.16c0.28263-7.06 1.8104-14.021 4.5192-20.561l-3.6955-1.531zm13.874-20.763c-5.943 5.9429-10.657 12.998-13.874 20.763l3.6955 1.531c3.0153-7.2795 7.4349-13.894 13.006-19.465l-2.8284-2.8284zm20.763-13.874c-7.7648 3.2163-14.82 7.9305-20.763 13.874l2.8284 2.8284c5.5715-5.5715 12.186-9.9911 19.465-13.006l-1.5308-3.6955zm21.932-4.8205c-7.5308 0.3015-14.956 1.9312-21.932 4.8205l1.5308 3.6955c6.5395-2.7087 13.501-4.2366 20.561-4.5192l-0.16-3.9968zm-1.92 1.9488v0.0478l4 0.0037v-0.0515h-4zm0-0.0478v0.0478h4v-0.0515l-4 0.0037zm-20.012-2.8239c6.9755 2.8893 14.401 4.519 21.932 4.8205l0.16-3.9968c-7.0602-0.2826-14.022-1.8105-20.561-4.5192l-1.5307 3.6955zm-20.763-13.874c5.9429 5.943 12.998 10.657 20.763 13.874l1.5307-3.6955c-7.2795-3.0153-13.894-7.4349-19.465-13.006l-2.8284 2.8284zm-13.873-20.763c3.2163 7.7649 7.9305 14.82 13.873 20.763l2.8284-2.8284c-5.5715-5.5715-9.9911-12.186-13.006-19.465l-3.6955 1.5307zm-4.8205-21.932c0.30147 7.5308 1.9311 14.956 4.8205 21.932l3.6955-1.5307c-2.7088-6.5395-4.2366-13.501-4.5192-20.561l-3.9968 0.16zm1.9488 1.92c0.01595 0 0.03194 0 0.04796 2e-5l0.00335-4c-0.01707-2e-5 -0.03417-2e-5 -0.05131-2e-5v4zm-2-4.48v2.48h4v-2.48h-4zm2-2h-1e-5 -1e-5v4h1e-5 1e-5v-4zm2.48 0h-2.48v4h2.48v-4zm2 2.0479c-2e-5 -0.01598-2e-5 -0.03196-2e-5 -0.04794h-4c0 0.01709 0 0.03419 2e-5 0.05129l4-0.00335zm20.012 2.8238c-6.9755-2.8894-14.401-4.519-21.932-4.8205l-0.15999 3.9968c7.0601 0.28263 14.021 1.8104 20.561 4.5192l1.5307-3.6955zm20.763 13.873c-5.9429-5.943-12.998-10.657-20.763-13.873l-1.5307 3.6955c7.2795 3.0153 13.894 7.4349 19.465 13.006l2.8284-2.8284zm13.874 20.763c-3.2163-7.7649-7.9305-14.82-13.874-20.763l-2.8284 2.8284c5.5715 5.5715 9.9911 12.186 13.006 19.465l3.6955-1.5307zm4.8205 21.932c-0.3015-7.5308-1.9312-14.956-4.8205-21.932l-3.6955 1.5307c2.7087 6.5395 4.2365 13.501 4.5192 20.561l3.9968-0.16zm-1.9488-1.92h-0.0478l-0.0037 4h0.0515v-4zm0.0478 0h-0.0478v4h0.0514l-0.0036-4zm2.8239-20.012c-2.8894 6.9755-4.519 14.401-4.8205 21.932l3.9968 0.16c0.2826-7.0601 1.8104-14.022 4.5192-20.561l-3.6955-1.5307zm13.873-20.763c-5.9429 5.9429-10.657 12.998-13.873 20.763l3.6955 1.5307c3.0153-7.2795 7.4349-13.894 13.006-19.465l-2.8285-2.8284zm20.763-13.873c-7.7646 3.2163-14.82 7.9305-20.763 13.873l2.8285 2.8284c5.5715-5.5715 12.186-9.9911 19.465-13.006l-1.531-3.6955zm21.932-4.8205c-7.531 0.30146-14.956 1.9311-21.932 4.8205l1.531 3.6955c6.54-2.7088 13.501-4.2366 20.561-4.5192l-0.16-3.9968zm-1.92 1.9488v0.04779l4 0.00369v-0.05148h-4zm4.48-2h-2.48v4h2.48v-4zm2 2.0435v-0.0207-0.0228h-4v0.0207 0.0228h4zm0 2.4365v-2.4365h-4v2.4365h4zm-2.048 2c0.016-2e-5 0.032-3e-5 0.048-3e-5v-4c-0.017 0-0.034 1e-5 -0.051 3e-5l3e-3 4zm-4.484-2.0312c-0.286 6.7176-1.749 13.34-4.326 19.563l3.695 1.5307c2.757-6.6563 4.321-13.739 4.627-20.924l-3.996-0.17029zm-4.326 19.563c-2.891 6.9786-7.128 13.32-12.469 18.661l2.828 2.8284c5.713-5.7127 10.244-12.495 13.336-19.958l-3.695-1.5307zm-12.469 18.661c-5.3414 5.3412-11.682 9.5781-18.661 12.469l1.5307 3.6956c7.4639-3.0917 14.246-7.6232 19.958-13.336l-2.828-2.8284zm-18.661 12.469c-6.2236 2.5779-12.846 4.0401-19.563 4.3263l0.1703 3.9964c7.1847-0.3061 14.267-1.87 20.924-4.6271l-1.5307-3.6956zm-17.48 6.4097c0.2863-6.7176 1.7485-13.34 4.3263-19.563l-3.6955-1.5308c-2.7571 6.6564-4.321 13.739-4.6271 20.924l3.9963 0.1703zm4.3263-19.563c2.8907-6.9787 7.1276-13.32 12.469-18.661l-2.8284-2.8284c-5.7127 5.7127-10.244 12.495-13.336 19.958l3.6955 1.5308zm12.469-18.661c5.3412-5.3412 11.682-9.5781 18.661-12.469l-1.531-3.6956c-7.4637 3.0917-14.246 7.6232-19.958 13.336l2.8284 2.8284zm18.661-12.469c6.224-2.5779 12.846-4.0401 19.563-4.3263l-0.17-3.9964c-7.185 0.30614-14.267 1.87-20.924 4.6272l1.531 3.6956zm-48.846 31.13c2.5779 6.2236 4.0401 12.846 4.3263 19.563l3.9964-0.1703c-0.3061-7.1847-1.87-14.267-4.6271-20.924l-3.6956 1.5307zm-12.469-18.661c5.3412 5.3412 9.5781 11.682 12.469 18.661l3.6956-1.5307c-3.0917-7.4639-7.6232-14.246-13.336-19.958l-2.8284 2.8284zm-18.661-12.469c6.9787 2.8907 13.32 7.1276 18.661 12.469l2.8284-2.8284c-5.7127-5.7127-12.495-10.244-19.958-13.336l-1.5308 3.6955zm-19.563-4.3262c6.7176 0.28624 13.34 1.7484 19.563 4.3262l1.5308-3.6955c-6.6564-2.7572-13.739-4.321-20.924-4.6272l-0.17029 3.9964zm6.4097 17.48c-2.5779-6.2235-4.0401-12.846-4.3264-19.563l-3.9964 0.17029c0.30615 7.1847 1.87 14.267 4.6272 20.924l3.6956-1.5308zm12.469 18.661c-5.3412-5.3412-9.5781-11.682-12.469-18.661l-3.6956 1.5308c3.0917 7.4639 7.6232 14.246 13.336 19.958l2.8284-2.8284zm18.661 12.469c-6.9786-2.8906-13.32-7.1275-18.661-12.469l-2.8284 2.8284c5.7127 5.7127 12.495 10.244 19.958 13.336l1.5307-3.6956zm19.563 4.3263c-6.7176-0.2862-13.34-1.7484-19.563-4.3263l-1.5307 3.6956c6.6563 2.7571 13.739 4.321 20.924 4.6271l0.1703-3.9964zm-19.563 13.391c6.2236-2.5779 12.846-4.0401 19.563-4.3264l-0.1703-3.9963c-7.1848 0.3061-14.267 1.87-20.924 4.6271l1.5307 3.6956zm-18.661 12.469c5.3412-5.3412 11.682-9.5781 18.661-12.469l-1.5307-3.6956c-7.4639 3.0917-14.246 7.6232-19.958 13.336l2.8284 2.8284zm-12.469 18.661c2.8907-6.9786 7.1276-13.32 12.469-18.661l-2.8284-2.8284c-5.7127 5.7127-10.244 12.495-13.336 19.958l3.6955 1.531zm-4.3263 19.563c0.28624-6.717 1.7484-13.339 4.3263-19.563l-3.6955-1.531c-2.7571 6.657-4.321 13.739-4.6272 20.924l3.9964 0.17zm17.48-6.409c-6.2235 2.577-12.846 4.04-19.563 4.326l0.17029 3.996c7.1847-0.306 14.267-1.87 20.924-4.627l-1.5308-3.695zm18.661-12.469c-5.3413 5.341-11.682 9.578-18.661 12.469l1.5308 3.695c7.4639-3.092 14.246-7.623 19.958-13.336l-2.8284-2.828zm12.469-18.661c-2.8906 6.9787-7.1275 13.32-12.469 18.661l2.8284 2.828c5.7127-5.712 10.244-12.494 13.336-19.958l-3.6956-1.5308zm4.3263-19.563c-0.2862 6.7176-1.7484 13.34-4.3263 19.563l3.6956 1.5308c2.7571-6.6564 4.321-13.739 4.6271-20.924l-3.9964-0.1703zm13.391 19.563c-2.5779-6.2236-4.04-12.846-4.3263-19.563l-3.9963 0.1703c0.3061 7.1847 1.87 14.267 4.6271 20.924l3.6955-1.5307zm12.469 18.661c-5.3412-5.3414-9.5781-11.682-12.469-18.661l-3.6955 1.5307c3.0917 7.4639 7.6232 14.246 13.336 19.958l2.8284-2.828zm18.661 12.469c-6.9786-2.891-13.32-7.128-18.661-12.469l-2.8284 2.828c5.7126 5.713 12.494 10.244 19.958 13.336l1.531-3.695zm19.563 4.326c-6.717-0.286-13.339-1.749-19.563-4.326l-1.531 3.695c6.657 2.757 13.739 4.321 20.924 4.627l0.17-3.996zm-6.409-17.48c2.577 6.224 4.04 12.846 4.326 19.563l3.996-0.17c-0.306-7.185-1.87-14.267-4.627-20.924l-3.695 1.531zm-12.469-18.661c5.341 5.3412 9.578 11.682 12.469 18.661l3.695-1.531c-3.092-7.4636-7.623-14.246-13.336-19.958l-2.828 2.8284zm-18.661-12.469c6.9787 2.8906 13.32 7.1275 18.661 12.469l2.828-2.8284c-5.712-5.7127-12.494-10.244-19.958-13.336l-1.5308 3.6956zm-19.563-4.3264c6.7176 0.2863 13.34 1.7485 19.563 4.3264l1.5308-3.6956c-6.6564-2.7571-13.739-4.321-20.924-4.6271l-0.1703 3.9963z" fill="#000" mask="url(#a)"/>
<circle cx="63.5" cy="63.5" r="22.5" fill="#000"/>
</g>
<defs>
<clipPath id="c">
<rect width="128" height="128" fill="#fff"/>
</clipPath>
</defs>
</svg>
